<svg xmlns="http://www.w3.org/2000/svg" width="152" height="130" viewBox="164.3 140.3 152 130" enable-background="new 164.3 140.3 152 130"><path fill="#4A4A4A" d="M241.1 198c-4.6 0-7.9-2.5-9.2-3.5-.9-.8-1-2.2-.2-3.1.8-.9 2.2-1 3.1-.2 1.8 1.6 4.3 2.5 6.5 2.4 3.1-.1 5.3-1.7 6-2.4.9-.8 2.3-.7 3.1.2.8.9.7 2.3-.2 3.1-2.4 2.1-5.6 3.4-8.8 3.5h-.3z"/><path fill="#91D3F3" d="M260 159.1l1-.6c-.3.1-.6.4-1 .6zM262.1 157.9l.8-.4-.8.4zM256.9 161.5c.1-.1.2-.1.2-.2l-.2.2zM258.4 160.3l.8-.6c-.3.1-.6.4-.8.6z"/><path fill="#91D3F3" d="M257.2 161.3c.4-.4.8-.7 1.2-1-.5.3-.9.6-1.2 1zM259.2 159.7l.9-.6c-.4.2-.7.3-.9.6zM261.1 158.5c.3-.2.7-.4 1.1-.6-.4.2-.8.4-1.1.6z" opacity=".3"/><path fill="#91D3F3" d="M204.4 151.3c.2-.2.3-.4.4-.8.2-.7.7-1.3 1.3-1.8 1.2-.9 2.7-1.4 4.1-1.7 3.2-.8 6.8-.8 10-.1 2.2.4 5.6 1.4 6.3 3.9.3 1 .8 1 1.7 1.2 1.1.1 5.4 1 6.5 1.2.4.1 1.9.6 2.1-.1.1-.4-.5-1.2-.7-1.5-.4-.6-.8-1.1-1.2-1.6-.8-1-1.7-2-2.7-2.9-2-1.8-4.2-3.3-6.7-4.4-3.1-1.4-6.6-2.2-10.2-2.2-5.2 0-10.4 1.6-14.6 4.7-1.5 1.1-2.9 2.4-4.2 3.8-.5.5-3.5 3.8-2.5 4.4.4.2 1.5 0 2-.1 2.6-.6 6.3-1.2 7.2-1.3.6-.2.9-.4 1.2-.7z"/><path fill="#4A4A4A" d="M215.6 160.7c3 0 6.8-6.7 6.7-8-.5-3.8-12.9-3.8-13.1 0-.2 1.2 3.4 8 6.4 8z"/><path fill="#91D3F3" d="M191.5 265.3zM240 160.9c-.1-.6-.3-1.3-.5-1.9-.3-1-.4-1.3-1.4-1.6-.9-.3-4.6-1.5-10.1-2.1-1.4-.1-2.6-.6-3.4.7-.9 1.3-1.6 2.6-2.6 3.9-1.5 1.9-3.8 4.5-6.5 4.5-2.4 0-4.4-2.2-5.8-3.9-.9-1.1-1.7-2.3-2.5-3.5-1.7-2.8-4.4-1.8-7.2-1.2-1.9.3-7.4 1.6-8.2 2.1-.6.3-.9 1-1 1.6-.2.7-.3 1.4-.4 2.1-.2 1.4-.4 2.8-.4 4.2 0 3.3.7 6.6 1.9 9.7 1.9 4.6 5.2 8.5 9.3 11.2 1 .7 2.1 1.3 3.2 1.8.6.3 1.6.6 1.4 1.4-.2 1.2-2.6 2.1-3.5 2.6-3.8 1.9-7.4 4.3-10.7 7-4.7 3.8-8.8 8.4-12.2 13.3-4.5 6.5-7.9 13.8-10.3 21.4-3.2 10.1-4.6 20.6-4.9 31.1v.4c.1 2.4 2.1 4.4 4.5 4.4h10.3c2.2 0 4-1.5 4.4-3.5l.1-1.1c1-9.2 3.2-21.4 8-31.1 5.6-11.3 14.1-21.3 24.8-28 1.5-.9 3-1.8 4.6-2.6 2-1 4.5-1.7 2.5-4.2-2.1-2.7-3.8-5.7-4.6-9.1-.4-1.7-.6-3.4-.6-5.2 0-9.5 6.3-18.2 15.3-21.1 1.2-.4 2.5-.7 3.7-.9 1-.2 1.9-.2 2.4-.7.4-.3.5-.8.4-1.7z"/><path fill="#6EC2ED" d="M316.3 264.9c-.5-10.4-2.4-20.8-6.2-30.5-2.9-7.3-6.8-14.2-11.7-20.3-3.4-4.2-7.3-8.1-11.5-11.4l-2.6-2c-.6-.4-1.7-1-1.9-1.7v-.2c0-.8 1.2-1.2 1.8-1.6 2.1-1.3 4-3 5.6-4.9 3.3-4 5.1-9.1 5.1-14.2 0-12.5-10.1-22.6-22.6-22.6-3.3 0-6.4.7-9.3 2-.3.1-.5.2-.8.4l-1.1.6-1 .6-.9.6-.8.6c-.4.3-.8.6-1.2 1-.1.1-.2.1-.2.2-1.2 1.2-4.7 4.1-3 6l2.2 1.9c1.4 1.4 2.7 2.9 3.7 4.6 2.1 3.4 3.2 7.4 3.2 11.4 0 4.2-1.2 8.1-3.2 11.5l-.6.9v.1l-.1.2c-.8 1.2-1.9 2.3-.6 3.5.7.6 1.4 1.1 2.1 1.5 2.3 1.6 4.7 3.1 6.9 4.8 7.3 5.5 13.6 12.2 18.4 19.9 1.4 2.2 2.6 4.4 3.7 6.7 4.9 9.7 7.1 22 8.1 31.2v.4c.2 2.3 2.1 4.1 4.5 4.1h9.5c2.4 0 4.4-1.9 4.5-4.3v-1z"/><path d="M241.6 258.6s-.1 0-.1.1c0-.1 0-.1.1-.1z" fill="none"/><path fill="#4A4A4A" d="M289.8 265.7l-.1-1.1c-.7-5.9-1.9-11.8-3.6-17.4-2.6-8.5-6.5-16.5-11.8-23.1-4.5-5.8-10.1-10.5-16.4-13.4-2.2-1-4.5-1.8-6.9-2.3-1.9-.4-5.2-1.1-6.4.3-.5.5-.7 1.3-.6 2.6.2 2.9.5 5.9.8 8.8l1.5 15.5.8 7.8c.1 1.3.7 6.1.6 7.2-.1 2.3-4.9 6.9-5.6 7.7 0 0-.1 0-.1.1v.1l-.4.2s-.1 0-.1.1c-.8.3-1.8.2-2.3-.4-.7-.8-5.5-5.4-5.6-7.7-.1-1.1.5-5.9.6-7.2l.8-7.8.1-1.3s1-10.8 1.5-15.8c.3-2.7.7-5.4.8-8.1.1-4.2-4.9-2.5-7.1-2-2.3.5-4.6 1.3-6.8 2.3-6.3 2.9-11.8 7.6-16.4 13.4-5.2 6.6-9.1 14.6-11.8 23.1-1.8 5.8-3 11.9-3.7 18v.5c.1 2.4 2.1 4.4 4.5 4.4h89.2c2.4 0 4.4-1.9 4.5-4.3v-.2zM242 258.3l-.4.2c.1 0 .3-.1.4-.2z"/></svg>