<?xml version="1.0" ?><svg enable-background="new 0 0 512 512" height="512px" id="Layer_1" version="1.1" viewBox="0 0 512 512" width="512px" xml:space="preserve" xmlns="http://www.w3.org/2000/svg" xmlns:cc="http://creativecommons.org/ns#" xmlns:dc="http://purl.org/dc/elements/1.1/" xmlns:inkscape="http://www.inkscape.org/namespaces/inkscape" xmlns:rdf="http://www.w3.org/1999/02/22-rdf-syntax-ns#" xmlns:sodipodi="http://sodipodi.sourceforge.net/DTD/sodipodi-0.dtd" xmlns:svg="http://www.w3.org/2000/svg"><defs id="defs19"/><g id="g3767"><path d="M492.668,442.732c0,34.171-27.702,61.871-61.873,61.871H81.052c-34.171,0-61.875-27.7-61.875-61.871V92.987  c0-34.171,27.704-61.873,61.875-61.873h349.743c34.171,0,61.873,27.701,61.873,61.873V442.732L492.668,442.732z" fill="#203656" id="path3"/><path d="M492.668,417.988c0,34.172-27.702,61.873-61.873,61.873H81.052c-34.171,0-61.875-27.701-61.875-61.873  V68.243c0-34.171,27.704-61.872,61.875-61.872h349.743c34.171,0,61.873,27.701,61.873,61.872V417.988L492.668,417.988z" fill="#3B5998" id="path5"/><path d="M399.08,176.013h-44.736v36.146l-8.945-8.996c0,0-4.014-0.309-8.948-0.309  c-4.938,0-71.58-44.738-80.527-44.738c-2.207,0-14.953,9.985-28.376,21.469c-2.904-2.276-5.053-3.573-6.181-3.573  c-7.439,0-28.886,15.235-41.12,22.745L157.5,176.013h-44.734v143.159l160.689,160.689h157.34c34.171,0,61.873-27.701,61.873-61.873  V269.602L399.08,176.013z" fill="#28416D" id="path7"/><path d="M 255.9375 158.125 C 250.9995 158.125 193.28125 208.09425 193.28125 213.03125 C 193.28125 217.97025 201.6265 229.6875 206.5625 229.6875 C 211.5005 229.6875 251.0005 202.84375 255.9375 202.84375 C 260.8755 202.84375 320.08425 274.4375 325.03125 274.4375 L 345.40625 274.4375 L 345.40625 203.15625 C 345.40625 203.15625 341.3715 202.84375 336.4375 202.84375 C 331.4995 202.84375 264.8845 158.125 255.9375 158.125 z M 112.78125 176 L 112.78125 319.1875 L 157.5 319.1875 L 157.5 176 L 112.78125 176 z M 221.375 176 C 211.506 176 176.938 202.84375 172 202.84375 L 166.4375 202.84375 L 166.4375 274.4375 L 172 274.4375 C 176.938 274.4375 186.8125 287.09375 186.8125 287.09375 L 221.375 321.625 C 221.375 321.625 228.15425 328.125 238.03125 328.125 C 247.90625 328.125 251 321.625 251 321.625 C 251 321.625 255.002 328.125 264.875 328.125 C 277.177 328.125 280.59375 316.71875 280.59375 316.71875 C 280.59375 316.71875 283.33275 319.1875 291.71875 319.1875 C 305.14075 319.1875 305.28125 306.84375 305.28125 306.84375 C 305.28125 306.84375 310.20925 310.21875 315.15625 310.21875 C 323.01925 310.21875 327.5 301.90775 327.5 296.96875 C 327.5 287.87075 323.49475 280.8285 320.84375 277.1875 C 316.56975 274.0305 308.354 265.26875 287.125 241.59375 C 279.816 233.44275 272.2425 225.01725 266.1875 218.53125 C 259.6225 211.51025 256.6385 208.74625 255.3125 207.65625 C 251.3905 209.32025 240.8105 215.71075 233.5625 220.09375 C 215.2425 231.16175 209.8145 234.15625 206.5625 234.15625 C 203.9295 234.15625 199.688 232.7515 194.5 225.9375 C 193.166 224.1815 188.8125 218.04925 188.8125 213.03125 C 188.8125 210.84025 189.542 208.7075 199.25 199.1875 C 204.558 193.9845 211.8595 187.27375 219.8125 180.34375 C 221.1395 179.18675 222.47225 178.0615 223.78125 176.9375 C 222.74925 176.3365 221.937 176 221.375 176 z M 354.34375 176 L 354.34375 319.1875 L 399.09375 319.1875 L 399.09375 176 L 354.34375 176 z M 139.59375 292.34375 C 144.53675 292.34375 148.5625 296.33825 148.5625 301.28125 C 148.5625 306.21725 144.53675 310.21875 139.59375 310.21875 C 134.65275 310.21875 130.65625 306.21725 130.65625 301.28125 C 130.65625 296.33825 134.65275 292.34375 139.59375 292.34375 z M 372.25 292.34375 C 377.191 292.34375 381.1875 296.33825 381.1875 301.28125 C 381.1885 306.21725 377.192 310.21875 372.25 310.21875 C 367.311 310.21875 363.28125 306.21725 363.28125 301.28125 C 363.28125 296.33825 367.311 292.34375 372.25 292.34375 z " id="path9" style="fill:#ffffff;fill-opacity:1"/></g></svg>