<?xml version="1.0" encoding="UTF-8" standalone="no"?>
<!-- Created with Inkscape (http://www.inkscape.org/) -->
<svg
   xmlns:dc="http://purl.org/dc/elements/1.1/"
   xmlns:cc="http://creativecommons.org/ns#"
   xmlns:rdf="http://www.w3.org/1999/02/22-rdf-syntax-ns#"
   xmlns:svg="http://www.w3.org/2000/svg"
   xmlns="http://www.w3.org/2000/svg"
   xmlns:sodipodi="http://sodipodi.sourceforge.net/DTD/sodipodi-0.dtd"
   xmlns:inkscape="http://www.inkscape.org/namespaces/inkscape"
   id="svg2"
   sodipodi:version="0.32"
   inkscape:version="0.46"
   width="293"
   height="60"
   xml:space="preserve"
   sodipodi:docname="Q3_FY10_Results.svg"
   version="1.0"
   inkscape:output_extension="org.inkscape.output.svg.inkscape"><metadata
     id="metadata7"><rdf:RDF><cc:Work
         rdf:about=""><dc:format>image/svg+xml</dc:format><dc:type
           rdf:resource="http://purl.org/dc/dcmitype/StillImage" /></cc:Work></rdf:RDF></metadata><defs
     id="defs5"><inkscape:perspective
       sodipodi:type="inkscape:persp3d"
       inkscape:vp_x="0 : 526.18109 : 1"
       inkscape:vp_y="0 : 1000 : 0"
       inkscape:vp_z="744.09448 : 526.18109 : 1"
       inkscape:persp3d-origin="372.04724 : 350.78739 : 1"
       id="perspective9" /></defs><sodipodi:namedview
     inkscape:window-height="750"
     inkscape:window-width="1280"
     inkscape:pageshadow="2"
     inkscape:pageopacity="0.0"
     guidetolerance="10.0"
     gridtolerance="10.0"
     objecttolerance="10.0"
     borderopacity="1.0"
     bordercolor="#666666"
     pagecolor="#ffffff"
     id="base"
     showgrid="false"
     inkscape:zoom="3.7333333"
     inkscape:cx="147.20828"
     inkscape:cy="38.05316"
     inkscape:window-x="-8"
     inkscape:window-y="-8"
     inkscape:current-layer="g11" /><g
     id="g11"
     inkscape:groupmode="layer"
     inkscape:label="Q3_FY10_Results"
     transform="matrix(1.25,0,0,-1.25,-231.59442,634.35856)"><g
       id="g2542"
       transform="matrix(1.1550038,0,0,1.1550038,65.627611,-346.61614)"><path
         id="path13"
         style="fill:#005b75;fill-opacity:1;fill-rule:evenodd;stroke:none"
         d="M 141.322,699.26 L 148.116,699.26 L 153.444,719.112 L 146.65,719.112 L 141.322,699.26" /><path
         id="path15"
         style="fill:#005b75;fill-opacity:1;fill-rule:evenodd;stroke:none"
         d="M 176.222,699.26 L 183.015,699.26 L 188.343,719.112 L 181.55,719.112 L 176.222,699.26" /><path
         id="path17"
         style="fill:#005b75;fill-opacity:1;fill-rule:evenodd;stroke:none"
         d="M 211.122,699.26 L 217.915,699.26 L 223.243,719.112 L 216.45,719.112 L 211.122,699.26" /><path
         id="path19"
         style="fill:#005b75;fill-opacity:1;fill-rule:evenodd;stroke:none"
         d="M 169.898,712.31 L 176.697,712.31 C 177.6,716.773 174.711,719.071 168.046,719.071 C 160.337,719.071 155.097,715.303 153.34,708.755 C 151.747,702.823 154.9,699.211 162.154,699.211 C 169.488,699.211 173.819,701.487 175.671,706.591 L 168.845,706.591 C 167.895,704.346 166.107,703.17 163.698,703.17 C 160.406,703.17 159.118,705.255 160.13,709.023 C 161.184,712.951 163.665,715.116 166.984,715.116 C 169.072,715.116 170.053,714.18 169.898,712.31" /><path
         id="path21"
         style="fill:#005b75;fill-opacity:1;fill-rule:evenodd;stroke:none"
         d="M 204.798,712.31 L 211.597,712.31 C 212.5,716.773 209.611,719.071 202.946,719.071 C 195.237,719.071 189.997,715.303 188.239,708.755 C 186.647,702.823 189.8,699.211 197.053,699.211 C 204.388,699.211 208.719,701.487 210.571,706.591 L 203.745,706.591 C 202.795,704.346 201.007,703.17 198.598,703.17 C 195.306,703.17 194.018,705.255 195.03,709.023 C 196.084,712.951 198.565,715.116 201.884,715.116 C 203.972,715.116 204.952,714.18 204.798,712.31" /><path
         id="path23"
         style="fill:#f99d27;fill-opacity:1;fill-rule:evenodd;stroke:none"
         d="M 115.075,730.119 C 124.176,739.125 135.18,741.452 139.569,735.298 C 143.958,729.145 140.115,716.781 131.014,707.775 C 121.913,698.769 110.91,696.443 106.52,702.596 C 102.131,708.75 105.974,721.114 115.075,730.119" /><path
         id="path25"
         style="fill:#b02a30;fill-opacity:1;fill-rule:evenodd;stroke:none"
         d="M 121.099,734.922 C 120.117,734.187 119.074,733.329 118.093,732.349 C 110.117,724.508 106.804,713.728 110.73,708.338 C 114.78,702.947 124.596,704.907 132.694,712.87 C 137.05,717.097 139.995,722.058 141.222,726.652 C 141.59,730.021 141.1,733.023 139.566,735.289 C 136.069,740.067 128.584,739.699 121.099,734.922" /><path
         id="path27"
         style="fill:#ffffff;fill-opacity:1;fill-rule:evenodd;stroke:none"
         d="M 132.025,735.204 C 133.086,734.144 132.439,731.827 130.632,730.006 C 128.808,728.202 126.438,727.556 125.41,728.599 C 124.315,729.642 124.962,731.992 126.786,733.83 C 128.626,735.667 130.997,736.23 132.025,735.204 z M 125.609,703.332 C 121.348,700.137 116.946,698.555 112.652,699.217 C 114.452,699.124 115.909,701.12 117.103,703.802 C 118.314,706.55 119.043,709.099 119.623,711.483 C 120.469,715.257 120.535,717.955 120.104,718.534 C 119.375,719.495 117.717,719.246 115.843,718.17 C 114.948,717.674 113.754,718.005 115.163,719.71 C 116.589,721.431 122.26,725.57 124.299,726.215 C 126.537,726.861 129.09,725.983 128.228,723.534 C 127.615,721.746 119.772,701.199 125.609,703.332" /><path
         id="path29"
         style="fill:#005b75;fill-opacity:1;fill-rule:evenodd;stroke:none"
         d="M 228.316,699.225 L 238.507,699.225 C 241.407,699.225 243.565,699.445 245.634,700.879 C 247.018,701.816 248.038,703.25 248.46,704.822 C 249.192,707.552 247.941,709.371 244.828,709.813 C 247.765,710.364 249.616,711.908 250.245,714.252 C 250.733,716.071 250.335,717.367 249.026,718.25 C 247.948,718.966 246.182,719.077 243.779,719.077 L 233.644,719.077 L 228.316,699.225 z M 237.111,716.044 L 241.336,716.044 C 244.512,716.044 245.983,715.658 245.45,713.673 C 244.917,711.687 243.21,711.191 239.923,711.191 L 235.808,711.191 L 237.111,716.044 z M 233.448,702.396 L 235.002,708.186 L 239.448,708.186 C 242.873,708.186 244.394,707.579 243.766,705.235 C 243.188,703.085 241.512,702.396 238.419,702.396 L 233.448,702.396" /><path
         id="path31"
         style="fill:#005b75;fill-opacity:1;fill-rule:evenodd;stroke:none"
         d="M 259.673,699.225 L 263.76,699.225 C 263.873,700.162 264.092,701.182 264.395,702.313 L 265.883,707.855 C 266.867,711.522 265.05,713.397 260.438,713.397 C 255.992,713.397 253.092,711.853 252.203,709.261 L 256.125,709.261 C 256.638,710.557 257.768,711.164 259.645,711.164 C 261.744,711.164 262.487,710.226 261.947,708.213 L 261.88,707.965 L 259.726,707.965 C 253.65,707.965 250.372,706.862 249.432,703.361 C 248.707,700.659 250.414,698.889 254.031,698.889 C 256.379,698.889 258.438,699.666 260.073,701.127 L 259.673,699.225 z M 261.251,705.621 L 261.185,705.373 C 260.496,702.809 258.425,701.265 255.884,701.265 C 254.034,701.265 253.26,701.982 253.615,703.305 C 254.103,705.125 255.7,705.621 258.655,705.621 L 261.251,705.621" /><path
         id="path33"
         style="fill:#005b75;fill-opacity:1;fill-rule:evenodd;stroke:none"
         d="M 267.278,699.225 L 271.393,699.225 L 273.295,706.311 C 273.983,708.875 276.342,710.667 278.8,710.667 C 281.203,710.667 282.041,709.261 281.286,706.449 L 279.347,699.225 L 283.379,699.225 L 285.658,707.717 C 286.62,711.301 284.8,713.369 280.796,713.369 C 278.2,713.369 276.085,712.487 274.311,710.612 L 274.804,713.066 L 270.744,713.066 C 270.326,710.888 270.046,709.537 269.905,709.013 L 267.278,699.225" /><path
         id="path35"
         style="fill:#005b75;fill-opacity:1;fill-rule:evenodd;stroke:none"
         d="M 287.008,699.225 L 291.013,699.225 L 293.018,706.697 L 298.414,699.225 L 303.91,699.225 L 297.831,707.138 L 306.078,713.066 L 300.913,713.066 L 293.232,707.496 L 296.34,719.077 L 292.336,719.077 L 287.008,699.225" /></g></g></svg>