<?xml version="1.0" ?><!DOCTYPE svg  PUBLIC '-//W3C//DTD SVG 1.1//EN'  'http://www.w3.org/Graphics/SVG/1.1/DTD/svg11.dtd'><svg enable-background="new 0 0 512 512" height="512px" id="Layer_1" version="1.1" viewBox="0 0 512 512" width="512px" xml:space="preserve" xmlns="http://www.w3.org/2000/svg" xmlns:xlink="http://www.w3.org/1999/xlink"><path d="M492.668,442.611c0,34.171-27.702,61.872-61.873,61.872H81.052c-34.171,0-61.875-27.701-61.875-61.872  V92.866c0-34.171,27.704-61.873,61.875-61.873h349.743c34.171,0,61.873,27.701,61.873,61.873V442.611z" fill="#4A5257"/><path d="M492.668,417.867c0,34.172-27.702,61.873-61.873,61.873H81.052c-34.171,0-61.875-27.701-61.875-61.873  V68.122c0-34.171,27.704-61.872,61.875-61.872h349.743c34.171,0,61.873,27.7,61.873,61.872V417.867z" fill="#969EA3"/><path d="M492.668,385.73L255.922,148.985l-94.84,94.844l34.318,34.319l0.107,0.107l-34.426,34.428L328.137,479.74  h102.658c26.816,0,49.643-17.064,58.229-40.924l2.764-10.592c0.568-3.369,0.881-6.826,0.881-10.357V385.73z" fill="#666F75"/><g><g><polygon fill="#FFFFFF" points="185.4,268.148 161.082,243.829 255.922,148.985 350.766,243.829 326.445,268.148 255.922,197.624       "/></g><g><polygon fill="#FFFFFF" points="185.4,337.003 161.082,312.684 255.922,217.839 350.766,312.684 326.445,337.003 255.922,266.478       "/></g></g></svg>