<?xml version="1.0" encoding="utf-8"?>
<!-- Generator: Adobe Illustrator 16.0.0, SVG Export Plug-In . SVG Version: 6.00 Build 0)  -->
<!DOCTYPE svg PUBLIC "-//W3C//DTD SVG 1.1//EN" "http://www.w3.org/Graphics/SVG/1.1/DTD/svg11.dtd">
<svg version="1.1" id="Capa_1" xmlns="http://www.w3.org/2000/svg" xmlns:xlink="http://www.w3.org/1999/xlink" x="0px" y="0px"
	 width="1500px" height="1500px" viewBox="-675 -675 1500 1500" enable-background="new -675 -675 1500 1500" xml:space="preserve">
<g>
	<path opacity="0.1" fill="#1D1D1B" enable-background="new    " d="M-628.723,445.636c0,0,606.044,315.672,1029.719,39.455
		C824.599,209.048,215.057,239.53,41.908,248.211C-131.272,256.873-628.723,445.636-628.723,445.636z"/>
	<g>
		<g>
			<path fill="#F2E4D7" d="M-61.491-256.963c0,0,225.619-242.274,334.254-242.274c0,0,66.895-0.088,58.472,66.822
				c-8.36,66.817,50.174,116.996,75.275,133.727c25.071,16.649,16.606,116.913,16.606,116.913s-91.882,8.454-167.095,41.818
				C180.86-106.515-61.491-256.963-61.491-256.963z"/>
			<path fill="#F7B844" d="M-44.77-290.338l58.461-45.993c0,0,121.258,20.901,121.258,83.543
				C134.949-190.053-44.77-290.338-44.77-290.338z"/>
			<path fill="#EFE1D5" d="M148.173-257.47C715.675-47.977,581.927,453.365,448.221,486.849
				c-133.728,33.462-919.175,50.101-1052.913-33.463C-738.408,369.844-419.312-466.804,148.173-257.47z"/>
			<path fill="#F6ECE3" d="M404.887-287.265c0,0-202.08-7.766-278.898,11.01l4.698,7.858c0,0,185.442,29.194,292.431,86.611
				c0,0,10.017-86.611-8.773-105.479H404.887z"/>
			<path fill="#F6ECE3" d="M262.365-483.111c0,0-158.291,92.51-191.174,134.752c-32.925,42.33,7.77,0,7.77,0
				S273.28-450.16,303.049-450.16l28.187-7.864c0,0-18.791-43.851-48.57-40.695L262.365-483.111z"/>
		</g>
	</g>
	<g opacity="0.5">
		
			<text transform="matrix(0.9839 -0.1788 0.1788 0.9839 -217.2754 353.6279)" fill="#1D1D1B" font-family="'NexaBold'" font-size="610.0575">€</text>
		
			<text transform="matrix(0.9839 -0.1788 0.1788 0.9839 -210.6201 356.6035)" fill="#1D1D1B" font-family="'NexaBold'" font-size="610.0575">€</text>
	</g>
	<g>
		<g>
			<g>
				<path fill="#FAD940" d="M514.194,349.066c-20.55,10.181-63.14,17.197-112.516,17.197c-47.142,0-88.075-6.354-109.598-15.771
					v26.51c21.564,9.416,62.518,15.749,109.598,15.749c49.335,0,91.945-6.995,112.516-17.156V349.066z"/>
				<path fill="#FAD940" d="M514.174,348.052c0,10.679-49.522,19.349-110.592,19.349c-61.151,0-110.651-8.67-110.651-19.349
					c0-10.699,49.521-19.359,110.651-19.359C464.651,328.692,514.174,337.353,514.174,348.052z"/>
			</g>
			<path fill="#F8B905" d="M514.194,321.314c-20.55,10.182-63.14,17.197-112.516,17.197c-47.142,0-88.075-6.363-109.598-15.77
				v26.489c21.564,9.438,62.518,15.77,109.598,15.77c49.335,0,91.945-6.996,112.516-17.136V321.314z"/>
			<path fill="#FAD940" d="M514.174,320.291c0,10.667-49.522,19.358-110.592,19.358c-61.151,0-110.651-8.691-110.651-19.358
				c0-10.699,49.521-19.381,110.651-19.381C464.651,300.91,514.174,309.592,514.174,320.291z"/>
			<path fill="#F8B905" d="M514.194,293.543c-20.55,10.202-63.14,17.196-112.516,17.196c-47.142,0-88.075-6.383-109.598-15.778
				v26.51c21.564,9.404,62.518,15.738,109.598,15.738c49.335,0,91.945-6.996,112.516-17.136V293.543z"/>
			<path fill="#FAD940" d="M514.174,292.508c0,10.699-49.522,19.371-110.592,19.371c-61.151,0-110.651-8.672-110.651-19.371
				c0-10.679,49.521-19.349,110.651-19.349C464.651,273.159,514.174,281.829,514.174,292.508z"/>
			<path fill="#F8B905" d="M514.194,265.791c-20.55,10.183-63.14,17.198-112.516,17.198c-47.142,0-88.075-6.385-109.598-15.791
				v26.488c21.564,9.438,62.518,15.771,109.598,15.771c49.335,0,91.945-6.984,112.516-17.136V265.791z"/>
			<path fill="#FAD940" d="M514.174,264.757c0,10.679-49.522,19.359-110.592,19.359c-61.151,0-110.651-8.681-110.651-19.359
				c0-10.688,49.521-19.349,110.651-19.349C464.651,245.387,514.174,254.068,514.174,264.757z"/>
			<path fill="#F8B905" d="M514.194,238.051c-20.55,10.15-63.14,17.187-112.516,17.187c-47.142,0-88.075-6.373-109.598-15.8v26.499
				c21.564,9.438,62.518,15.79,109.598,15.79c49.335,0,91.945-7.006,112.516-17.156V238.051z"/>
			<path fill="#FAD940" d="M514.174,237.007c0,10.698-49.522,19.348-110.592,19.348c-61.151,0-110.651-8.649-110.651-19.348
				c0-10.68,49.521-19.391,110.651-19.391C464.651,217.616,514.174,226.327,514.174,237.007z"/>
			<path fill="#F8B905" d="M514.194,210.279c-20.55,10.182-63.14,17.197-112.516,17.197c-47.142,0-88.075-6.364-109.598-15.8v26.51
				c21.564,9.414,62.518,15.757,109.598,15.757c49.335,0,91.945-6.983,112.516-17.144V210.279z"/>
			<path fill="#FAD940" d="M514.174,209.233c0,10.688-49.522,19.351-110.592,19.351c-61.151,0-110.651-8.662-110.651-19.351
				c0-10.678,49.521-19.349,110.651-19.349C464.651,189.885,514.174,198.556,514.174,209.233z"/>
			<path fill="#F8B905" d="M514.194,182.507c-20.55,10.182-63.14,17.207-112.516,17.207c-47.142,0-88.075-6.373-109.598-15.789
				v26.488c21.564,9.437,62.518,15.78,109.598,15.78c49.335,0,91.945-6.994,112.516-17.156V182.507z"/>
			<path fill="#FAD940" d="M514.174,181.463c0,10.698-49.522,19.369-110.592,19.369c-61.151,0-110.651-8.671-110.651-19.369
				c0-10.679,49.521-19.36,110.651-19.36C464.651,162.103,514.174,170.784,514.174,181.463z"/>
			<path fill="#F8B905" d="M514.194,152.241c-20.55,10.182-63.14,17.177-112.516,17.177c-47.142,0-88.075-6.374-109.598-15.79v26.51
				c21.564,9.447,62.518,15.769,109.598,15.769c49.335,0,91.945-6.993,112.516-17.155V152.241z"/>
			<path fill="#FAD940" d="M514.174,151.196c0,10.688-49.522,19.37-110.592,19.37c-61.151,0-110.651-8.682-110.651-19.37
				s49.521-19.358,110.651-19.358C464.651,131.838,514.174,140.508,514.174,151.196z"/>
			<path fill="#F8B905" d="M514.194,124.449c-20.55,10.202-63.14,17.217-112.516,17.217c-47.142,0-88.075-6.383-109.598-15.81
				v26.541c21.564,9.396,62.518,15.738,109.598,15.738c49.335,0,91.945-6.996,112.516-17.156V124.449z"/>
			<path fill="#FAD940" d="M514.174,123.436c0,10.698-49.522,19.349-110.592,19.349c-61.151,0-110.651-8.65-110.651-19.349
				c0-10.689,49.521-19.371,110.651-19.371C464.651,104.064,514.174,112.746,514.174,123.436z"/>
			<path fill="#F8B905" d="M514.194,96.698c-20.55,10.182-63.14,17.197-112.516,17.197c-47.142,0-88.075-6.375-109.598-15.78v26.489
				c21.564,9.447,62.518,15.779,109.598,15.779c49.335,0,91.945-6.995,112.516-17.145V96.698z"/>
			<path fill="#FAD940" d="M514.174,95.685c0,10.678-49.522,19.338-110.592,19.338c-61.151,0-110.651-8.66-110.651-19.338
				c0-10.699,49.521-19.37,110.651-19.37C464.651,76.314,514.174,84.985,514.174,95.685z"/>
			<path fill="#F8B905" d="M514.194,68.957c-20.55,10.161-63.14,17.187-112.516,17.187c-47.142,0-88.075-6.374-109.598-15.79v26.511
				c21.564,9.415,62.518,15.748,109.598,15.748c49.335,0,91.945-6.985,112.516-17.135V68.957z"/>
			<path fill="#FAD940" d="M514.174,67.912c0,10.698-49.522,19.37-110.592,19.37c-61.151,0-110.651-8.672-110.651-19.37
				c0-10.678,49.521-19.369,110.651-19.369C464.651,48.521,514.174,57.234,514.174,67.912z"/>
			<path fill="#F8B905" d="M514.194,41.195c-20.55,10.161-63.14,17.188-112.516,17.188c-47.142,0-88.075-6.364-109.598-15.801v26.51
				c21.564,9.417,62.518,15.769,109.598,15.769c49.335,0,91.945-6.994,112.516-17.155V41.195z"/>
			<path fill="#FAD940" d="M514.174,40.141c0,10.688-49.522,19.349-110.592,19.349c-61.151,0-110.651-8.67-110.651-19.349
				c0-10.674,49.521-19.354,110.651-19.354C464.651,20.786,514.174,29.478,514.174,40.141z"/>
			<path fill="#F8B905" d="M514.194,13.444c-20.55,10.151-63.14,17.188-112.516,17.188c-47.142,0-88.075-6.379-109.598-15.796
				v26.505c21.564,9.416,62.518,15.769,109.598,15.769c49.335,0,91.945-7.005,112.516-17.166V13.444z"/>
			<path fill="#FAD940" d="M514.174,12.374c0,10.693-49.522,19.364-110.592,19.364c-61.151,0-110.651-8.66-110.651-19.364
				c0-10.679,49.521-19.365,110.651-19.365C464.651-6.991,514.174,1.695,514.174,12.374z"/>
			<path fill="#F8B905" d="M494.018-14.338C473.447-4.161,430.879,2.88,381.461,2.88c-47.101,0-88.033-6.379-109.577-15.805v26.498
				c21.584,9.406,62.559,15.754,109.577,15.754c49.356,0,91.965-6.989,112.557-17.14V-14.338z"/>
			<path fill="#FAD940" d="M383.363-34.731c61.091,0,110.612,8.665,110.612,19.359c0,10.688-49.521,19.354-110.612,19.354
				c-61.089,0-110.62-8.665-110.62-19.354C272.743-26.066,322.274-34.731,383.363-34.731z"/>
			<path fill="#F8B905" d="M241.464,576.714c-20.57,10.181-63.159,17.207-112.557,17.207c-47.121,0-88.059-6.373-109.567-15.79
				v26.489c21.564,9.438,62.508,15.77,109.567,15.77c49.355,0,91.965-6.996,112.557-17.146V576.714z"/>
			<path fill="#FAD940" d="M130.811,556.329c61.09,0,110.61,8.662,110.61,19.361c0,10.688-49.521,19.348-110.61,19.348
				c-61.079,0-110.6-8.66-110.6-19.348C20.21,564.991,69.732,556.329,130.811,556.329z"/>
			<path fill="#F8B905" d="M221.245,548.963c-20.529,10.182-63.119,17.187-112.536,17.187c-47.105,0-88.054-6.375-109.54-15.77
				v26.489c21.568,9.437,62.513,15.779,109.54,15.779c49.355,0,91.986-7.005,112.536-17.156V548.963L221.245,548.963z"/>
			<path fill="#FAD940" d="M110.613,528.559c61.089,0,110.611,8.659,110.611,19.358c0,10.688-49.522,19.351-110.611,19.351
				c-61.074,0-110.59-8.662-110.59-19.351C0.023,537.218,49.54,528.559,110.613,528.559z"/>
			<path fill="#F8B905" d="M221.245,521.222c-20.529,10.182-63.119,17.176-112.536,17.176c-47.105,0-88.054-6.353-109.54-15.789
				v26.51c21.568,9.426,62.513,15.748,109.54,15.748c49.355,0,91.986-6.994,112.536-17.135V521.222L221.245,521.222z"/>
			<path fill="#FAD940" d="M110.613,500.797c61.089,0,110.611,8.67,110.611,19.369s-49.522,19.371-110.611,19.371
				c-61.074,0-110.59-8.672-110.59-19.371S49.54,500.797,110.613,500.797z"/>
			<path fill="#F8B905" d="M221.245,493.45c-20.529,10.16-63.119,17.196-112.536,17.196c-47.105,0-88.054-6.372-109.54-15.789
				v26.488c21.568,9.437,62.513,15.79,109.54,15.79c49.355,0,91.986-6.994,112.536-17.155V493.45L221.245,493.45z"/>
			<path fill="#FAD940" d="M110.613,473.056c61.089,0,110.611,8.661,110.611,19.351c0,10.688-49.522,19.348-110.611,19.348
				c-61.074,0-110.59-8.66-110.59-19.348C0.023,481.717,49.54,473.056,110.613,473.056z"/>
			<path fill="#F8B905" d="M221.245,465.7c-20.529,10.14-63.119,17.176-112.536,17.176c-47.105,0-88.054-6.386-109.54-15.791v26.49
				c21.568,9.425,62.513,15.768,109.54,15.768c49.355,0,91.986-6.994,112.536-17.135V465.7L221.245,465.7z"/>
			<path fill="#FAD940" d="M110.613,445.253c61.089,0,110.611,8.67,110.611,19.38s-49.522,19.38-110.611,19.38
				c-61.074,0-110.59-8.67-110.59-19.38S49.54,445.253,110.613,445.253z"/>
			<path fill="#F8B905" d="M221.245,437.906c-20.529,10.183-63.119,17.197-112.536,17.197c-47.105,0-88.054-6.374-109.54-15.769
				v26.488c21.568,9.426,62.513,15.749,109.54,15.749c49.355,0,91.986-6.974,112.536-17.136V437.906L221.245,437.906z"/>
			<path fill="#FAD940" d="M110.613,417.523c61.089,0,110.611,8.659,110.611,19.349c0,10.698-49.522,19.359-110.611,19.359
				c-61.074,0-110.59-8.661-110.59-19.359C0.023,426.183,49.54,417.523,110.613,417.523z"/>
			<path fill="#F8B905" d="M221.245,410.155c-20.529,10.182-63.119,17.177-112.536,17.177c-47.105,0-88.054-6.385-109.54-15.77
				v26.499c21.568,9.427,62.513,15.779,109.54,15.779c49.355,0,91.986-6.994,112.536-17.176V410.155L221.245,410.155z"/>
			<path fill="#FAD940" d="M110.613,389.771c61.089,0,110.611,8.67,110.611,19.369c0,10.679-49.522,19.351-110.611,19.351
				c-61.074,0-110.59-8.672-110.59-19.351C0.023,398.441,49.54,389.771,110.613,389.771z"/>
			<path fill="#F8B905" d="M221.245,382.414c-20.529,10.172-63.119,17.188-112.536,17.188c-47.105,0-88.054-6.374-109.54-15.812
				v26.52c21.568,9.428,62.513,15.738,109.54,15.738c49.355,0,91.986-6.994,112.536-17.114V382.414L221.245,382.414z"/>
			<path fill="#FAD940" d="M221.225,381.349c0,10.699-49.502,19.369-110.591,19.369c-61.116,0-110.621-8.67-110.621-19.369
				C0.013,370.691,49.529,362,110.634,362C171.723,361.979,221.225,370.691,221.225,381.349z"/>
			<path fill="#F8B905" d="M221.245,354.643c-20.529,10.162-63.119,17.177-112.536,17.177c-47.105,0-88.054-6.364-109.54-15.779
				v26.499c21.568,9.426,62.513,15.779,109.54,15.779c49.355,0,91.986-7.006,112.536-17.166V354.643L221.245,354.643z"/>
			<path fill="#FAD940" d="M110.613,334.259c61.089,0,110.611,8.661,110.611,19.339c0,10.699-49.522,19.35-110.611,19.35
				c-61.074,0-110.59-8.65-110.59-19.35C0.023,342.92,49.54,334.259,110.613,334.259z"/>
			<path fill="#F8B905" d="M201.047,326.881c-20.55,10.172-63.117,17.197-112.494,17.197c-47.131,0-88.059-6.374-109.602-15.769
				v26.468c21.594,9.436,62.533,15.779,109.602,15.779c49.336,0,91.944-7.005,112.494-17.145V326.881z"/>
			<path fill="#FAD940" d="M201.047,325.825c0,10.69-49.543,19.371-110.601,19.371c-61.146,0-110.647-8.681-110.647-19.371
				c0-10.679,49.511-19.359,110.647-19.359C151.504,306.466,201.047,315.146,201.047,325.825z"/>
			<path fill="#F8B905" d="M180.891,299.11c-20.59,10.201-63.158,17.207-112.535,17.207c-47.142,0-88.05-6.385-109.598-15.78v26.488
				c21.579,9.417,62.522,15.749,109.598,15.749c49.333,0,91.945-6.974,112.535-17.136V299.11z"/>
			<path fill="#FAD940" d="M180.871,298.075c0,10.688-49.522,19.369-110.59,19.369c-61.142,0-110.689-8.681-110.689-19.369
				c0-10.679,49.547-19.35,110.689-19.35C131.349,278.726,180.871,287.396,180.871,298.075z"/>
			<path fill="#F8B905" d="M711.059,545.952c-20.57,10.16-63.158,17.177-112.536,17.177c-47.12,0-88.054-6.375-109.576-15.791
				v26.489c21.564,9.447,62.518,15.769,109.576,15.769c49.356,0,91.946-6.994,112.536-17.135V545.952z"/>
			<path fill="#FAD940" d="M711.059,544.886c0,10.688-49.562,19.359-110.631,19.359c-61.111,0-110.653-8.671-110.653-19.359
				s49.563-19.358,110.653-19.358C661.497,525.527,711.059,534.197,711.059,544.886z"/>
			<path fill="#F8B905" d="M711.059,518.159c-20.57,10.202-63.158,17.196-112.536,17.196c-47.12,0-88.054-6.362-109.576-15.789
				v26.51c21.564,9.436,62.518,15.768,109.576,15.768c49.356,0,91.946-6.993,112.536-17.154V518.159z"/>
			<path fill="#FAD940" d="M711.059,517.114c0,10.699-49.562,19.381-110.631,19.381c-61.111,0-110.653-8.682-110.653-19.381
				c0-10.668,49.563-19.339,110.653-19.339C661.497,497.775,711.059,506.446,711.059,517.114z"/>
			<path fill="#F8B905" d="M711.059,490.408c-20.57,10.182-63.158,17.196-112.536,17.196c-47.12,0-88.054-6.373-109.576-15.79
				v26.489c21.564,9.447,62.518,15.79,109.576,15.79c49.356,0,91.946-6.994,112.536-17.156V490.408z"/>
			<path fill="#FAD940" d="M711.059,489.363c0,10.688-49.562,19.358-110.631,19.358c-61.111,0-110.653-8.67-110.653-19.358
				c0-10.689,49.563-19.36,110.653-19.36C661.497,470.003,711.059,478.674,711.059,489.363z"/>
			<path fill="#F8B905" d="M711.059,462.636c-20.57,10.182-63.158,17.198-112.536,17.198c-47.12,0-88.054-6.375-109.576-15.79
				v26.519c21.564,9.396,62.518,15.738,109.576,15.738c49.356,0,91.946-6.975,112.536-17.135V462.636z"/>
			<path fill="#FAD940" d="M711.059,461.602c0,10.699-49.562,19.359-110.631,19.359c-61.111,0-110.653-8.66-110.653-19.359
				c0-10.678,49.563-19.349,110.653-19.349C661.497,442.253,711.059,450.924,711.059,461.602z"/>
			<path fill="#F8B905" d="M711.059,434.885c-20.57,10.161-63.158,17.197-112.536,17.197c-47.12,0-88.054-6.384-109.576-15.8v26.51
				c21.564,9.426,62.518,15.759,109.576,15.759c49.356,0,91.946-6.984,112.536-17.156V434.885z"/>
			<path fill="#FAD940" d="M711.059,433.85c0,10.679-49.562,19.34-110.631,19.34c-61.111,0-110.653-8.661-110.653-19.34
				c0-10.698,49.563-19.349,110.653-19.349C661.497,414.501,711.059,423.151,711.059,433.85z"/>
			<path fill="#F8B905" d="M711.059,407.133c-20.57,10.162-63.158,17.188-112.536,17.188c-47.12,0-88.054-6.384-109.576-15.79
				v26.489c21.564,9.446,62.518,15.79,109.576,15.79c49.356,0,91.946-7.005,112.536-17.166V407.133z"/>
			<path fill="#FAD940" d="M711.059,406.079c0,10.698-49.562,19.369-110.631,19.369c-61.111,0-110.653-8.671-110.653-19.369
				c0-10.679,49.563-19.371,110.653-19.371C661.497,386.708,711.059,395.4,711.059,406.079z"/>
			<path fill="#F8B905" d="M711.059,379.373c-20.57,10.17-63.158,17.186-112.536,17.186c-47.12,0-88.054-6.373-109.576-15.81v26.529
				c21.564,9.417,62.518,15.749,109.576,15.749c49.356,0,91.946-6.994,112.536-17.146V379.373z"/>
			<path fill="#FAD940" d="M711.059,378.307c0,10.699-49.562,19.37-110.631,19.37c-61.111,0-110.653-8.671-110.653-19.37
				c0-10.678,49.563-19.349,110.653-19.349C661.497,358.958,711.059,367.649,711.059,378.307z"/>
			<path fill="#F8B905" d="M711.059,351.601c-20.57,10.172-63.158,17.197-112.536,17.197c-47.12,0-88.054-6.364-109.576-15.8v26.51
				c21.564,9.436,62.518,15.778,109.576,15.778c49.356,0,91.946-6.994,112.536-17.176V351.601z"/>
			<path fill="#FAD940" d="M711.059,350.555c0,10.688-49.562,19.351-110.631,19.351c-61.111,0-110.653-8.662-110.653-19.351
				c0-10.698,49.563-19.369,110.653-19.369C661.497,331.186,711.059,339.856,711.059,350.555z"/>
			<path fill="#F8B905" d="M711.059,323.849c-20.57,10.192-63.158,17.198-112.536,17.198c-47.12,0-88.054-6.385-109.576-15.801
				v26.51c21.564,9.426,62.518,15.769,109.576,15.769c49.356,0,91.946-7.015,112.536-17.155V323.849z"/>
			<path fill="#FAD940" d="M711.059,322.805c0,10.688-49.562,19.349-110.631,19.349c-61.111,0-110.653-8.66-110.653-19.349
				c0-10.699,49.563-19.37,110.653-19.37C661.497,303.435,711.059,312.105,711.059,322.805z"/>
			<path fill="#F8B905" d="M690.861,296.067c-20.57,10.202-63.159,17.217-112.515,17.217c-47.121,0-88.055-6.372-109.598-15.789
				v26.488c21.543,9.448,62.496,15.791,109.598,15.791c49.335,0,91.944-7.017,112.515-17.177V296.067z"/>
			<path fill="#FAD940" d="M690.861,295.044c0,10.699-49.543,19.348-110.611,19.348c-61.131,0-110.651-8.648-110.651-19.348
				c0-10.689,49.542-19.361,110.651-19.361C641.318,275.683,690.861,284.354,690.861,295.044z"/>
			<path fill="#F8B905" d="M711.059,268.338c-20.57,10.16-63.158,17.176-112.536,17.176c-47.12,0-88.054-6.375-109.576-15.771v26.49
				c21.564,9.437,62.518,15.769,109.576,15.769c49.356,0,91.946-6.995,112.536-17.176V268.338z"/>
			<path fill="#FAD940" d="M711.059,267.281c0,10.678-49.562,19.36-110.631,19.36c-61.111,0-110.653-8.683-110.653-19.36
				c0-10.688,49.563-19.369,110.653-19.369C661.497,247.912,711.059,256.593,711.059,267.281z"/>
			<path fill="#F8B905" d="M711.059,240.564c-20.57,10.162-63.158,17.198-112.536,17.198c-47.12,0-88.054-6.405-109.576-15.812
				v26.51c21.564,9.416,62.518,15.749,109.576,15.749c49.356,0,91.946-6.974,112.536-17.136V240.564z"/>
			<path fill="#FAD940" d="M711.059,239.51c0,10.699-49.562,19.38-110.631,19.38c-61.111,0-110.653-8.681-110.653-19.38
				c0-10.679,49.563-19.349,110.653-19.349C661.497,220.161,711.059,228.831,711.059,239.51z"/>
			<path fill="#F8B905" d="M711.059,212.794c-20.57,10.161-63.158,17.177-112.536,17.177c-47.12,0-88.054-6.354-109.576-15.78
				v26.499c21.564,9.427,62.518,15.77,109.576,15.77c49.356,0,91.946-6.975,112.536-17.156V212.794z"/>
			<path fill="#FAD940" d="M711.059,211.778c0,10.68-49.562,19.351-110.631,19.351c-61.111,0-110.653-8.671-110.653-19.351
				c0-10.688,49.563-19.369,110.653-19.369C661.497,192.409,711.059,201.091,711.059,211.778z"/>
			<path fill="#F8B905" d="M711.059,185.021c-20.57,10.192-63.158,17.218-112.536,17.218c-47.12,0-88.054-6.374-109.576-15.78
				v26.479c21.564,9.437,62.518,15.79,109.576,15.79c49.356,0,91.946-7.006,112.536-17.156V185.021z"/>
			<path fill="#FAD940" d="M711.059,184.008c0,10.678-49.562,19.369-110.631,19.369c-61.111,0-110.653-8.691-110.653-19.369
				c0-10.699,49.563-19.37,110.653-19.37C661.497,164.617,711.059,173.309,711.059,184.008z"/>
			<path fill="#F8B905" d="M711.059,157.28c-20.57,10.192-63.158,17.198-112.536,17.198c-47.12,0-88.054-6.364-109.576-15.812
				v26.521c21.564,9.415,62.518,15.758,109.576,15.758c49.356,0,91.946-6.993,112.536-17.145V157.28z"/>
			<path fill="#FAD940" d="M711.059,156.235c0,10.699-49.562,19.37-110.631,19.37c-61.111,0-110.653-8.671-110.653-19.37
				s49.563-19.348,110.653-19.348C661.497,136.888,711.059,145.558,711.059,156.235z"/>
			<path fill="#F8B905" d="M711.059,129.52c-20.57,10.171-63.158,17.186-112.536,17.186c-47.12,0-88.054-6.362-109.576-15.778
				v26.488c21.564,9.438,62.518,15.78,109.576,15.78c49.356,0,91.946-6.995,112.536-17.156V129.52z"/>
			<path fill="#FAD940" d="M711.059,128.465c0,10.688-49.562,19.369-110.631,19.369c-61.111,0-110.653-8.681-110.653-19.369
				c0-10.68,49.563-19.351,110.653-19.351C661.497,109.114,711.059,117.785,711.059,128.465z"/>
			<g>
				<path fill="#F8B905" d="M731.257,101.778c-20.55,10.15-63.138,17.177-112.557,17.177c-47.101,0-88.075-6.385-109.576-15.801
					v26.51c21.584,9.416,62.518,15.77,109.576,15.77c49.356,0,91.945-7.016,112.557-17.166V101.778z"/>
				<path fill="#FAD940" d="M620.594,81.363c61.09,0,110.622,8.671,110.622,19.36c0,10.688-49.532,19.358-110.622,19.358
					c-61.1,0-110.622-8.67-110.622-19.358C509.972,90.034,559.494,81.363,620.594,81.363z"/>
			</g>
			<path fill="#F8B905" d="M451.925,509.778c-20.55,10.161-63.138,17.176-112.516,17.176c-47.121,0-88.074-6.374-109.577-15.811
				v26.53c21.585,9.416,62.539,15.769,109.577,15.769c49.335,0,91.945-7.035,112.516-17.154V509.778z"/>
			<path fill="#FAD940" d="M451.925,508.691c0,10.729-49.542,19.391-110.61,19.391c-61.133,0-110.633-8.661-110.633-19.391
				c0-10.668,49.521-19.328,110.633-19.328C402.383,489.363,451.925,498.023,451.925,508.691z"/>
			<path fill="#F8B905" d="M451.925,481.986c-20.55,10.16-63.138,17.196-112.516,17.196c-47.121,0-88.074-6.363-109.577-15.79v26.53
				c21.585,9.415,62.539,15.769,109.577,15.769c49.335,0,91.945-7.015,112.516-17.176V481.986z"/>
			<path fill="#FAD940" d="M451.925,480.94c0,10.729-49.542,19.359-110.61,19.359c-61.133,0-110.633-8.63-110.633-19.359
				c0-10.679,49.521-19.339,110.633-19.339C402.383,461.602,451.925,470.262,451.925,480.94z"/>
			<path fill="#F8B905" d="M451.925,454.214c-20.55,10.182-63.138,17.217-112.516,17.217c-47.121,0-88.074-6.395-109.577-15.789
				v26.509c21.585,9.417,62.539,15.749,109.577,15.749c49.335,0,91.945-7.015,112.516-17.136V454.214z"/>
			<path fill="#FAD940" d="M451.925,453.189c0,10.71-49.542,19.359-110.61,19.359c-61.133,0-110.633-8.649-110.633-19.359
				c0-10.688,49.521-19.34,110.633-19.34C402.383,433.85,451.925,442.501,451.925,453.189z"/>
			<path fill="#F8B905" d="M451.925,426.462c-20.55,10.183-63.138,17.197-112.516,17.197c-47.121,0-88.074-6.394-109.577-15.8v26.53
				c21.585,9.405,62.539,15.779,109.577,15.779c49.335,0,91.945-7.036,112.516-17.176V426.462z"/>
			<path fill="#FAD940" d="M451.925,425.407c0,10.719-49.542,19.37-110.61,19.37c-61.133,0-110.633-8.651-110.633-19.37
				c0-10.657,49.521-19.328,110.633-19.328C402.383,406.079,451.925,414.75,451.925,425.407z"/>
			<path fill="#F8B905" d="M451.925,398.712c-20.55,10.171-63.138,17.155-112.516,17.155c-47.121,0-88.074-6.353-109.577-15.759
				v26.52c21.585,9.416,62.539,15.769,109.577,15.769c49.335,0,91.945-7.025,112.516-17.186V398.712z"/>
			<path fill="#FAD940" d="M451.925,397.677c0,10.698-49.542,19.35-110.61,19.35c-61.133,0-110.633-8.651-110.633-19.35
				c0-10.71,49.521-19.349,110.633-19.349C402.383,378.307,451.925,386.967,451.925,397.677z"/>
			<path fill="#F8B905" d="M451.925,370.96c-20.55,10.151-63.138,17.178-112.516,17.178c-47.121,0-88.074-6.375-109.577-15.791
				v26.53c21.585,9.396,62.539,15.77,109.577,15.77c49.335,0,91.945-7.036,112.516-17.177V370.96z"/>
			<path fill="#FAD940" d="M451.925,369.905c0,10.72-49.542,19.349-110.61,19.349c-61.133,0-110.633-8.629-110.633-19.349
				c0-10.699,49.521-19.351,110.633-19.351C402.383,350.555,451.925,359.227,451.925,369.905z"/>
			<path fill="#F8B905" d="M472.122,343.188c-20.549,10.182-63.139,17.176-112.535,17.176c-47.121,0-88.076-6.353-109.557-15.778
				v26.52c21.563,9.416,62.477,15.779,109.557,15.779c49.356,0,91.944-7.026,112.535-17.176V343.188L472.122,343.188z"/>
			<path fill="#FAD940" d="M472.102,342.133c0,10.72-49.5,19.37-110.602,19.37c-61.141,0-110.621-8.65-110.621-19.37
				c0-10.678,49.501-19.328,110.621-19.328C422.602,322.805,472.102,331.476,472.102,342.133z"/>
			<path fill="#F8B905" d="M451.925,315.427c-20.55,10.161-63.138,17.187-112.516,17.187c-47.121,0-88.074-6.374-109.577-15.769
				v26.489c21.585,9.436,62.539,15.789,109.577,15.789c49.335,0,91.945-7.015,112.516-17.176V315.427z"/>
			<path fill="#FAD940" d="M451.925,314.382c0,10.72-49.542,19.35-110.61,19.35c-61.133,0-110.633-8.63-110.633-19.35
				c0-10.699,49.521-19.338,110.633-19.338C402.383,295.044,451.925,303.683,451.925,314.382z"/>
			<path fill="#F8B905" d="M451.925,287.665c-20.55,10.182-63.138,17.218-112.516,17.218c-47.121,0-88.074-6.383-109.577-15.831
				v26.552c21.585,9.395,62.539,15.768,109.577,15.768c49.335,0,91.945-7.035,112.516-17.176V287.665z"/>
			<path fill="#FAD940" d="M451.925,286.61c0,10.72-49.542,19.391-110.61,19.391c-61.133,0-110.633-8.671-110.633-19.391
				c0-10.658,49.521-19.329,110.633-19.329C402.383,267.281,451.925,275.952,451.925,286.61z"/>
			<path fill="#F8B905" d="M451.925,259.915c-20.55,10.16-63.138,17.176-112.516,17.176c-47.121,0-88.074-6.354-109.577-15.789
				v26.509c21.585,9.446,62.539,15.811,109.577,15.811c49.335,0,91.945-7.016,112.516-17.197V259.915z"/>
			<path fill="#FAD940" d="M451.925,258.859c0,10.72-49.542,19.359-110.61,19.359c-61.133,0-110.633-8.64-110.633-19.359
				c0-10.678,49.521-19.35,110.633-19.35C402.383,239.51,451.925,248.182,451.925,258.859z"/>
			<path fill="#F8B905" d="M431.747,232.143c-20.57,10.161-63.138,17.219-112.535,17.219c-47.121,0-88.055-6.396-109.576-15.812
				v26.53c21.563,9.395,62.539,15.748,109.576,15.748c49.356,0,91.965-7.015,112.535-17.176V232.143z"/>
			<path fill="#FAD940" d="M431.747,231.107c0,10.721-49.562,19.36-110.61,19.36c-61.131,0-110.633-8.64-110.633-19.36
				c0-10.699,49.522-19.329,110.633-19.329C382.185,211.778,431.747,220.408,431.747,231.107z"/>
			<path fill="#F8B905" d="M579.836,587.154c-20.549,10.182-63.158,17.196-112.557,17.196c-47.1,0-88.075-6.405-109.555-15.801
				v26.521c21.521,9.406,62.496,15.749,109.555,15.749c49.356,0,91.966-6.995,112.557-17.155V587.154z"/>
			<path fill="#FAD940" d="M469.174,566.749c61.089,0,110.622,8.661,110.622,19.35c0,10.699-49.533,19.359-110.622,19.359
				c-61.101,0-110.622-8.66-110.622-19.359C358.552,575.41,408.073,566.749,469.174,566.749z"/>
			<path fill="#F8B905" d="M579.836,559.382c-20.549,10.191-63.158,17.198-112.557,17.198c-47.1,0-88.075-6.396-109.555-15.801
				v26.551c21.521,9.385,62.496,15.738,109.555,15.738c49.356,0,91.966-6.996,112.557-17.156V559.382z"/>
			<path fill="#FAD940" d="M579.796,558.326c0,10.742-49.522,19.36-110.593,19.36c-61.13,0-110.61-8.618-110.61-19.36
				c0-10.667,49.522-19.328,110.61-19.328C530.273,538.998,579.796,547.659,579.796,558.326z"/>
			<path fill="#F8B905" d="M579.836,531.652c-20.549,10.161-63.158,17.187-112.557,17.187c-47.1,0-88.075-6.404-109.555-15.821
				v26.55c21.521,9.376,62.496,15.76,109.555,15.76c49.356,0,91.966-7.025,112.557-17.208V531.652z"/>
			<path fill="#FAD940" d="M579.796,530.576c0,10.751-49.522,19.37-110.593,19.37c-61.13,0-110.61-8.619-110.61-19.37
				c0-10.699,49.522-19.309,110.61-19.309C530.273,511.247,579.796,519.877,579.796,530.576z"/>
			<path fill="#F8B905" d="M579.836,503.87c-20.549,10.182-63.158,17.196-112.557,17.196c-47.1,0-88.075-6.384-109.555-15.81v26.519
				c21.521,9.417,62.496,15.77,109.555,15.77c49.356,0,91.966-6.983,112.557-17.166V503.87z"/>
			<path fill="#FAD940" d="M579.796,502.804c0,10.73-49.522,19.369-110.593,19.369c-61.13,0-110.61-8.639-110.61-19.369
				c0-10.678,49.522-19.307,110.61-19.307C530.273,483.497,579.796,492.126,579.796,502.804z"/>
			<path fill="#F8B905" d="M579.836,476.119c-20.549,10.17-63.158,17.196-112.557,17.196c-47.1,0-88.075-6.384-109.555-15.831
				v26.562c21.521,9.374,62.496,15.738,109.555,15.738c49.356,0,91.966-6.985,112.557-17.177V476.119z"/>
			<path fill="#FAD940" d="M579.796,475.032c0,10.741-49.522,19.37-110.593,19.37c-61.13,0-110.61-8.629-110.61-19.37
				c0-10.679,49.522-19.298,110.61-19.298C530.273,455.734,579.796,464.375,579.796,475.032z"/>
			<path fill="#F8B905" d="M579.836,448.379c-20.549,10.16-63.158,17.176-112.557,17.176c-47.1,0-88.075-6.395-109.555-15.811v26.55
				c21.521,9.396,62.496,15.728,109.555,15.728c49.356,0,91.966-6.994,112.557-17.154V448.379z"/>
			<path fill="#FAD940" d="M579.796,447.292c0,10.74-49.522,19.338-110.593,19.338c-61.13,0-110.61-8.608-110.61-19.338
				c0-10.71,49.522-19.319,110.61-19.319C530.273,427.973,579.796,436.582,579.796,447.292z"/>
			<path fill="#F8B905" d="M579.836,420.605c-20.549,10.162-63.158,17.177-112.557,17.177c-47.1,0-88.075-6.384-109.555-15.812
				v26.552c21.521,9.396,62.496,15.748,109.555,15.748c49.356,0,91.966-6.993,112.557-17.176V420.605z"/>
			<path fill="#FAD940" d="M469.174,400.14c61.089,0,110.622,8.671,110.622,19.38c0,10.71-49.533,19.38-110.622,19.38
				c-61.101,0-110.622-8.67-110.622-19.38C358.552,408.811,408.073,400.14,469.174,400.14z"/>
			<path fill="#F8B905" d="M600.014,392.834c-20.529,10.182-63.139,17.196-112.557,17.196c-47.101,0-88.034-6.394-109.576-15.81
				v26.53c21.584,9.416,62.538,15.789,109.576,15.789c49.376,0,91.986-7.015,112.557-17.217V392.834z"/>
			<path fill="#FAD940" d="M599.992,391.769c0,10.729-49.521,19.359-110.61,19.359c-61.111,0-110.633-8.63-110.633-19.359
				c0-10.688,49.563-19.318,110.633-19.318C550.472,372.45,599.992,381.08,599.992,391.769z"/>
			<path fill="#F8B905" d="M365.008,578.38c-21.708,7.389-64.855,8.712-113.798,2.193c-46.707-6.25-86.44-17.983-106.544-30.173
				l-3.509,26.272c20.136,12.137,59.89,23.87,106.556,30.099c48.921,6.53,92.08,5.246,113.798-2.109L365.008,578.38z"/>
			<path fill="#FAD940" d="M365.152,577.346c-1.416,10.615-51.673,12.644-112.204,4.593
				c-60.572-8.091-108.542-23.218-107.134-33.835c1.407-10.585,51.694-12.603,112.277-4.532
				C318.602,551.622,366.561,566.771,365.152,577.346z"/>
		</g>
		<g>
			
				<linearGradient id="SVGID_1_" gradientUnits="userSpaceOnUse" x1="535.127" y1="1225.2812" x2="588.032" y2="1442.4695" gradientTransform="matrix(1 0 0 1 -206.0552 -773.6406)">
				<stop  offset="0" style="stop-color:#7CC142"/>
				<stop  offset="1" style="stop-color:#165D2F"/>
			</linearGradient>
			<polygon fill="url(#SVGID_1_)" points="363.332,417.885 321.571,467.995 304.85,568.24 324.344,629.495 368.899,587.723 
				388.394,479.141 			"/>
			<polygon fill="#649C46" points="363.332,417.885 366.809,477.061 349.405,582.86 324.344,629.495 368.899,587.723 
				388.394,479.141 			"/>
			<polygon fill="#7DC256" points="366.809,477.061 321.571,467.995 304.85,568.24 349.405,582.86 			"/>
		</g>
		<g>
			<polygon fill="#4ADEEB" points="785,597.554 727.739,566.295 626.172,569.305 569.841,600.295 619.445,635.899 729.747,633.985 
							"/>
			<polygon fill="#00B5AE" points="785,597.554 727.614,612.422 620.459,615.837 569.841,600.295 619.445,635.899 729.747,633.985 
							"/>
			<polygon fill="#00B5AE" points="727.614,612.422 727.739,566.295 626.172,569.305 620.459,615.837 			"/>
		</g>
		<g>
			<polygon fill="#E6E6E6" points="405.155,222.354 416.827,286.527 483.007,363.655 542.504,387.992 539.047,327.025 
				468.231,242.407 			"/>
			<polygon fill="#F2F2F2" points="405.155,222.354 452.793,257.628 522.804,338.843 542.504,387.992 539.047,327.025 
				468.231,242.407 			"/>
			<polygon fill="#CCCCCC" points="452.793,257.628 416.827,286.527 483.007,363.655 522.804,338.843 			"/>
		</g>
		<g opacity="0.5">
			<g>
				<path fill="#FFFFFF" d="M240.925,87.53l98.857-95.499C339.782-7.969,285.956,35.412,240.925,87.53z"/>
				<path fill="#FFFFFF" d="M241.96-9.687l95.504,98.852C337.464,89.165,294.089,35.339,241.96-9.687z"/>
			</g>
			<g>
				<path fill="#FFFFFF" d="M221.762,38.733l137.432,2.391C359.193,41.092,290.468,33.725,221.762,38.733z"/>
				<path fill="#FFFFFF" d="M291.233-29.263l-2.38,137.404C288.854,108.142,296.241,39.437,291.233-29.263z"/>
			</g>
		</g>
		<g opacity="0.5">
			<g>
				<path fill="#FFFFFF" d="M287.074,472.115l84.825,43.54C371.899,515.655,331.381,490.015,287.074,472.115z"/>
				<path fill="#FFFFFF" d="M351.143,451.048l-43.561,84.826C307.582,535.874,333.222,495.333,351.143,451.048z"/>
			</g>
			<g>
				<path fill="#FFFFFF" d="M314.824,448.586l29.2,90.807C344.024,539.393,333.491,492.603,314.824,448.586z"/>
				<path fill="#FFFFFF" d="M375.024,479.006l-90.766,29.2C284.259,508.206,331.029,497.671,375.024,479.006z"/>
			</g>
		</g>
		<g opacity="0.5">
			<g>
				<path fill="#FFFFFF" d="M595.212,569.025l69.844,64.938C665.056,633.964,633.001,598.298,595.212,569.025z"/>
				<path fill="#FFFFFF" d="M662.594,566.128l-64.939,69.844C597.654,635.972,633.331,603.917,662.594,566.128z"/>
			</g>
			<g>
				<path fill="#FFFFFF" d="M628.303,553.939l3.477,95.298C631.779,649.237,634.345,601.329,628.303,553.939z"/>
				<path fill="#FFFFFF" d="M677.99,599.528l-95.277,3.478C582.713,603.006,630.579,605.572,677.99,599.528z"/>
			</g>
		</g>
		<g opacity="0.5">
			<g>
				<path fill="#FFFFFF" d="M-17.945,268.752l18.904,93.455C0.959,362.207-4.287,314.548-17.945,268.752z"/>
				<path fill="#FFFFFF" d="M38.509,305.659l-93.477,18.904C-54.967,324.563-7.308,319.307,38.509,305.659z"/>
			</g>
			<g>
				<path fill="#FFFFFF" d="M17.743,275.767l-52.734,79.466C-34.982,355.232-4.985,317.797,17.743,275.767z"/>
				<path fill="#FFFFFF" d="M31.545,341.791l-79.456-52.739C-47.91,289.052-10.495,319.06,31.545,341.791z"/>
			</g>
		</g>
	</g>
</g>
</svg>
